<?xml version="1.0" encoding="UTF-8" standalone="no"?><svg xmlns="http://www.w3.org/2000/svg" xmlns:xlink="http://www.w3.org/1999/xlink" contentScriptType="application/ecmascript" contentStyleType="text/css" height="434px" preserveAspectRatio="none" style="width:753px;height:434px;" version="1.1" viewBox="0 0 753 434" width="753px" zoomAndPan="magnify"><defs><filter height="300%" id="fxke9yvfdkex3" width="300%" x="-1" y="-1"><feGaussianBlur result="blurOut" stdDeviation="2.0"/><feColorMatrix in="blurOut" result="blurOut2" type="matrix" values="0 0 0 0 0 0 0 0 0 0 0 0 0 0 0 0 0 0 .4 0"/><feOffset dx="4.0" dy="4.0" in="blurOut2" result="blurOut3"/><feBlend in="SourceGraphic" in2="blurOut3" mode="normal"/></filter></defs><g><!--MD5=[b14aa3529a60505823c7fa67d4fbe949]
entity caddy--><rect fill="#FEFECE" filter="url(#fxke9yvfdkex3)" height="46.2969" style="stroke: #A80036; stroke-width: 1.5;" width="81" x="283.5" y="8"/><rect fill="#FEFECE" height="10" style="stroke: #A80036; stroke-width: 1.5;" width="15" x="344.5" y="13"/><rect fill="#FEFECE" height="2" style="stroke: #A80036; stroke-width: 1.5;" width="4" x="342.5" y="15"/><rect fill="#FEFECE" height="2" style="stroke: #A80036; stroke-width: 1.5;" width="4" x="342.5" y="19"/><text fill="#000000" font-family="sans-serif" font-size="14" lengthAdjust="spacingAndGlyphs" textLength="41" x="298.5" y="40.9951">caddy</text><!--MD5=[43f47411528ae5a70aff10a4298b682f]
entity gallery--><rect fill="#FEFECE" filter="url(#fxke9yvfdkex3)" height="46.2969" style="stroke: #A80036; stroke-width: 1.5;" width="84" x="6" y="131"/><rect fill="#FEFECE" height="10" style="stroke: #A80036; stroke-width: 1.5;" width="15" x="70" y="136"/><rect fill="#FEFECE" height="2" style="stroke: #A80036; stroke-width: 1.5;" width="4" x="68" y="138"/><rect fill="#FEFECE" height="2" style="stroke: #A80036; stroke-width: 1.5;" width="4" x="68" y="142"/><text fill="#000000" font-family="sans-serif" font-size="14" lengthAdjust="spacingAndGlyphs" textLength="44" x="21" y="163.9951">gallery</text><!--MD5=[43030a5e48a55402ac9ddc0b9f97953f]
entity portainer--><rect fill="#FEFECE" filter="url(#fxke9yvfdkex3)" height="46.2969" style="stroke: #A80036; stroke-width: 1.5;" width="102" x="125" y="131"/><rect fill="#FEFECE" height="10" style="stroke: #A80036; stroke-width: 1.5;" width="15" x="207" y="136"/><rect fill="#FEFECE" height="2" style="stroke: #A80036; stroke-width: 1.5;" width="4" x="205" y="138"/><rect fill="#FEFECE" height="2" style="stroke: #A80036; stroke-width: 1.5;" width="4" x="205" y="142"/><text fill="#000000" font-family="sans-serif" font-size="14" lengthAdjust="spacingAndGlyphs" textLength="62" x="140" y="163.9951">portainer</text><!--MD5=[d5bda75127fa35577d571e679ccc822b]
entity seat-db--><rect fill="#FEFECE" filter="url(#fxke9yvfdkex3)" height="46.2969" style="stroke: #A80036; stroke-width: 1.5;" width="93" x="441.5" y="254"/><rect fill="#FEFECE" height="10" style="stroke: #A80036; stroke-width: 1.5;" width="15" x="514.5" y="259"/><rect fill="#FEFECE" height="2" style="stroke: #A80036; stroke-width: 1.5;" width="4" x="512.5" y="261"/><rect fill="#FEFECE" height="2" style="stroke: #A80036; stroke-width: 1.5;" width="4" x="512.5" y="265"/><text fill="#000000" font-family="sans-serif" font-size="14" lengthAdjust="spacingAndGlyphs" textLength="53" x="456.5" y="286.9951">seat-db</text><!--MD5=[866d3dc625f6ef470459a088eff48727]
entity seat-db-backup--><rect fill="#FEFECE" filter="url(#fxke9yvfdkex3)" height="46.2969" style="stroke: #A80036; stroke-width: 1.5;" width="149" x="413.5" y="377"/><rect fill="#FEFECE" height="10" style="stroke: #A80036; stroke-width: 1.5;" width="15" x="542.5" y="382"/><rect fill="#FEFECE" height="2" style="stroke: #A80036; stroke-width: 1.5;" width="4" x="540.5" y="384"/><rect fill="#FEFECE" height="2" style="stroke: #A80036; stroke-width: 1.5;" width="4" x="540.5" y="388"/><text fill="#000000" font-family="sans-serif" font-size="14" lengthAdjust="spacingAndGlyphs" textLength="109" x="428.5" y="409.9951">seat-db-backup</text><!--MD5=[992313c8c075b41ad4215e4296fff0ee]
entity seat-ghauth--><rect fill="#FEFECE" filter="url(#fxke9yvfdkex3)" height="46.2969" style="stroke: #A80036; stroke-width: 1.5;" width="124" x="262" y="131"/><rect fill="#FEFECE" height="10" style="stroke: #A80036; stroke-width: 1.5;" width="15" x="366" y="136"/><rect fill="#FEFECE" height="2" style="stroke: #A80036; stroke-width: 1.5;" width="4" x="364" y="138"/><rect fill="#FEFECE" height="2" style="stroke: #A80036; stroke-width: 1.5;" width="4" x="364" y="142"/><text fill="#000000" font-family="sans-serif" font-size="14" lengthAdjust="spacingAndGlyphs" textLength="84" x="277" y="163.9951">seat-ghauth</text><!--MD5=[4ab2515438747f0c5dc0ed0d26617783]
entity seat-recorder--><rect fill="#FEFECE" filter="url(#fxke9yvfdkex3)" height="46.2969" style="stroke: #A80036; stroke-width: 1.5;" width="134" x="421" y="131"/><rect fill="#FEFECE" height="10" style="stroke: #A80036; stroke-width: 1.5;" width="15" x="535" y="136"/><rect fill="#FEFECE" height="2" style="stroke: #A80036; stroke-width: 1.5;" width="4" x="533" y="138"/><rect fill="#FEFECE" height="2" style="stroke: #A80036; stroke-width: 1.5;" width="4" x="533" y="142"/><text fill="#000000" font-family="sans-serif" font-size="14" lengthAdjust="spacingAndGlyphs" textLength="94" x="436" y="163.9951">seat-recorder</text><!--MD5=[a56e09d9a210b190b508093b6c6a9d25]
entity v2ray--><rect fill="#FEFECE" filter="url(#fxke9yvfdkex3)" height="46.2969" style="stroke: #A80036; stroke-width: 1.5;" width="76" x="613" y="131"/><rect fill="#FEFECE" height="10" style="stroke: #A80036; stroke-width: 1.5;" width="15" x="669" y="136"/><rect fill="#FEFECE" height="2" style="stroke: #A80036; stroke-width: 1.5;" width="4" x="667" y="138"/><rect fill="#FEFECE" height="2" style="stroke: #A80036; stroke-width: 1.5;" width="4" x="667" y="142"/><text fill="#000000" font-family="sans-serif" font-size="14" lengthAdjust="spacingAndGlyphs" textLength="36" x="628" y="163.9951">v2ray</text><!--MD5=[779ad3e4c07a3a853f31d50cf0f4eb76]
entity v2ray-print--><rect fill="#FEFECE" filter="url(#fxke9yvfdkex3)" height="46.2969" style="stroke: #A80036; stroke-width: 1.5;" width="112" x="619" y="8"/><rect fill="#FEFECE" height="10" style="stroke: #A80036; stroke-width: 1.5;" width="15" x="711" y="13"/><rect fill="#FEFECE" height="2" style="stroke: #A80036; stroke-width: 1.5;" width="4" x="709" y="15"/><rect fill="#FEFECE" height="2" style="stroke: #A80036; stroke-width: 1.5;" width="4" x="709" y="19"/><text fill="#000000" font-family="sans-serif" font-size="14" lengthAdjust="spacingAndGlyphs" textLength="72" x="634" y="40.9951">v2ray-print</text><!--MD5=[637ee19228a4cb011d92fc948b4105b6]
link caddy to gallery--><path d="M283.1602,37.5184 C243.6453,44.9407 182.8712,59.3528 135,84 C113.0727,95.2896 91.4536,112.6455 75.2514,127.2504 " fill="none" id="caddy-&gt;gallery" style="stroke: #A80036; stroke-width: 1.0; stroke-dasharray: 7.0,7.0;"/><polygon fill="#A80036" points="71.2521,130.8989,80.5968,127.7883,74.9459,127.5291,75.2051,121.8782,71.2521,130.8989" style="stroke: #A80036; stroke-width: 1.0;"/><text fill="#000000" font-family="sans-serif" font-size="13" lengthAdjust="spacingAndGlyphs" textLength="75" x="136" y="97.0669">depends on</text><!--MD5=[5a72d451b02aee77c78d3b7225f9f0db]
link caddy to portainer--><path d="M283.1907,51.9422 C267.6701,60.8163 250.297,71.9056 236,84 C221.1601,96.5536 206.8979,112.9488 196.0047,126.7161 " fill="none" id="caddy-&gt;portainer" style="stroke: #A80036; stroke-width: 1.0; stroke-dasharray: 7.0,7.0;"/><polygon fill="#A80036" points="192.7353,130.8972,201.4303,126.2715,195.8153,126.9585,195.1283,121.3435,192.7353,130.8972" style="stroke: #A80036; stroke-width: 1.0;"/><text fill="#000000" font-family="sans-serif" font-size="13" lengthAdjust="spacingAndGlyphs" textLength="75" x="237" y="97.0669">depends on</text><!--MD5=[582d09f0f50fa300ad8a1278eaa4e757]
link caddy to seat-ghauth--><path d="M322.1901,54.009 C321.3217,67.6628 320.5564,85.3148 321,101 C321.2244,108.9342 321.6373,117.5285 322.0866,125.4408 " fill="none" id="caddy-&gt;seat-ghauth" style="stroke: #A80036; stroke-width: 1.0; stroke-dasharray: 7.0,7.0;"/><polygon fill="#A80036" points="322.4015,130.7931,325.8659,121.5737,322.1078,125.8017,317.8797,122.0436,322.4015,130.7931" style="stroke: #A80036; stroke-width: 1.0;"/><text fill="#000000" font-family="sans-serif" font-size="13" lengthAdjust="spacingAndGlyphs" textLength="75" x="322" y="97.0669">depends on</text><!--MD5=[2b62f5f992ced4811c1e40c86ab659c5]
link caddy to seat-recorder--><path d="M359.3962,54.1114 C372.9091,63.1778 388.3429,73.8315 402,84 C420.5054,97.7783 440.5319,113.9971 456.5997,127.3518 " fill="none" id="caddy-&gt;seat-recorder" style="stroke: #A80036; stroke-width: 1.0; stroke-dasharray: 7.0,7.0;"/><polygon fill="#A80036" points="460.5962,130.6822,456.243,121.8476,456.7551,127.4812,451.1215,127.9934,460.5962,130.6822" style="stroke: #A80036; stroke-width: 1.0;"/><text fill="#000000" font-family="sans-serif" font-size="13" lengthAdjust="spacingAndGlyphs" textLength="75" x="425" y="97.0669">depends on</text><!--MD5=[854721100d6792edf5d123d6c1d2ada2]
link caddy to v2ray--><path d="M364.7412,40.4387 C402.6896,49.7512 460.535,65.2855 509,84 C543.2968,97.2436 580.5209,115.7583 608.2497,130.4202 " fill="none" id="caddy-&gt;v2ray" style="stroke: #A80036; stroke-width: 1.0; stroke-dasharray: 7.0,7.0;"/><polygon fill="#A80036" points="612.9644,132.9244,606.8924,125.17,608.5486,130.579,603.1397,132.2352,612.9644,132.9244" style="stroke: #A80036; stroke-width: 1.0;"/><text fill="#000000" font-family="sans-serif" font-size="13" lengthAdjust="spacingAndGlyphs" textLength="75" x="546" y="97.0669">depends on</text><!--MD5=[5c39beccb9e3aa38a070cba4585f9b49]
link seat-db to seat-db-backup--><path d="M488,300.1354 C488,320.4937 488,350.1907 488,371.908 " fill="none" id="seat-db-&gt;seat-db-backup" style="stroke: #A80036; stroke-width: 1.0; stroke-dasharray: 7.0,7.0;"/><polygon fill="#A80036" points="488,376.9684,492,367.9684,488,371.9684,484,367.9684,488,376.9684" style="stroke: #A80036; stroke-width: 1.0;"/><text fill="#000000" font-family="sans-serif" font-size="13" lengthAdjust="spacingAndGlyphs" textLength="75" x="489" y="343.0669">depends on</text><!--MD5=[4d3f771d130f28150a6fe835e6ab6ffc]
link seat-recorder to seat-db--><path d="M488,177.1354 C488,197.4937 488,227.1907 488,248.908 " fill="none" id="seat-recorder-&gt;seat-db" style="stroke: #A80036; stroke-width: 1.0; stroke-dasharray: 7.0,7.0;"/><polygon fill="#A80036" points="488,253.9684,492,244.9684,488,248.9684,484,244.9684,488,253.9684" style="stroke: #A80036; stroke-width: 1.0;"/><text fill="#000000" font-family="sans-serif" font-size="13" lengthAdjust="spacingAndGlyphs" textLength="75" x="489" y="220.0669">depends on</text><!--MD5=[fe8e8bcbb6a738228159b75648eae89d]
link v2ray-print to v2ray--><path d="M670.4858,54.1354 C666.5134,74.4937 660.7189,104.1907 656.4814,125.908 " fill="none" id="v2ray-print-&gt;v2ray" style="stroke: #A80036; stroke-width: 1.0; stroke-dasharray: 7.0,7.0;"/><polygon fill="#A80036" points="655.494,130.9684,661.1436,122.9011,656.4516,126.061,653.2917,121.3689,655.494,130.9684" style="stroke: #A80036; stroke-width: 1.0;"/><text fill="#000000" font-family="sans-serif" font-size="13" lengthAdjust="spacingAndGlyphs" textLength="75" x="666" y="97.0669">depends on</text><!--MD5=[568d9060c3c722a617fe6b504b4a9075]
@startuml
skinparam componentStyle uml2
[caddy]
[gallery]
[portainer]
[seat-db]
[seat-db-backup]
[seat-ghauth]
[seat-recorder]
[v2ray]
[v2ray-print]
[caddy] ..> [gallery] : depends on
[caddy] ..> [portainer] : depends on
[caddy] ..> [seat-ghauth] : depends on
[caddy] ..> [seat-recorder] : depends on
[caddy] ..> [v2ray] : depends on
[seat-db] ..> [seat-db-backup] : depends on
[seat-recorder] ..> [seat-db] : depends on
[v2ray-print] ..> [v2ray] : depends on

@enduml

PlantUML version 1.2019.11(Sun Sep 22 10:02:15 GMT 2019)
(GPL source distribution)
Java Runtime: OpenJDK Runtime Environment
JVM: OpenJDK 64-Bit Server VM
Java Version: 14-ea+15
Operating System: Linux
Default Encoding: UTF-8
Language: en
Country: US
--></g></svg>